<?xml version="1.0" standalone="no"?>
<!DOCTYPE svg PUBLIC "-//W3C//DTD SVG 20010904//EN"
 "http://www.w3.org/TR/2001/REC-SVG-20010904/DTD/svg10.dtd">
<svg version="1.0" xmlns="http://www.w3.org/2000/svg"
 width="400.000000pt" height="400.000000pt" viewBox="0 0 400.000000 400.000000"
 preserveAspectRatio="xMidYMid meet">
<metadata>
Created by potrace 1.14, written by Peter Selinger 2001-2017
</metadata>
<g transform="translate(0.000000,400.000000) scale(0.100000,-0.100000)"
fill="#000000" stroke="none">
<path d="M1 3093 l1 -908 19 123 c48 315 179 625 378 892 90 121 299 328 417
412 155 111 396 236 539 280 176 55 320 84 480 98 50 4 -343 8 -872 9 l-963 1
1 -907z"/>
<path d="M2168 3990 c115 -10 197 -24 332 -57 151 -36 237 -68 392 -145 579
-286 987 -835 1088 -1463 18 -110 18 -110 19 783 l1 892 -962 -1 c-530 -1
-921 -5 -870 -9z"/>
<path d="M1790 3833 c-172 -18 -448 -101 -613 -183 -282 -142 -540 -367 -709
-620 -145 -218 -244 -464 -295 -732 -22 -117 -25 -464 -5 -578 31 -175 104
-406 172 -540 189 -375 479 -659 862 -845 266 -129 483 -176 803 -176 282 0
491 41 715 138 246 107 384 200 584 393 348 336 546 809 546 1301 0 177 -13
290 -51 436 -62 244 -132 403 -261 598 -201 303 -520 559 -858 689 -122 47
-289 92 -415 111 -92 14 -376 19 -475 8z m64 -515 c-4 -7 -26 -40 -50 -73 -56
-81 -108 -175 -96 -175 5 0 16 7 23 16 18 22 193 145 259 182 56 32 171 67
193 59 7 -2 -6 -13 -28 -25 -57 -29 -145 -118 -178 -179 -24 -45 -25 -52 -10
-46 10 3 23 10 28 14 31 23 244 100 329 118 115 25 270 37 305 24 22 -9 18
-11 -32 -21 -88 -18 -254 -111 -280 -158 -10 -18 -5 -18 78 5 95 26 281 51
382 51 80 0 180 -15 196 -29 4 -4 -30 -15 -77 -24 -128 -26 -192 -54 -255
-114 l-56 -52 108 -1 c131 0 288 -29 367 -68 39 -19 49 -27 35 -29 -67 -10
-135 -28 -165 -44 -36 -18 -100 -70 -100 -81 0 -3 28 -9 62 -12 80 -9 192 -63
246 -117 47 -48 55 -74 20 -66 -71 18 -155 18 -212 0 -33 -10 -61 -23 -63 -28
-1 -6 25 -26 58 -45 75 -43 199 -175 199 -212 0 -4 -21 3 -47 14 -49 22 -183
38 -183 22 1 -5 22 -37 48 -71 26 -34 55 -75 64 -91 l17 -29 -79 5 c-71 4 -80
3 -86 -14 -38 -118 -133 -233 -230 -279 -77 -37 -202 -46 -290 -20 -115 33
-169 71 -313 220 -234 241 -312 311 -450 404 -180 122 -378 166 -566 126 -38
-8 -71 -15 -73 -15 -5 0 -62 94 -62 102 0 5 35 42 78 83 44 42 85 88 93 103 7
15 25 45 38 67 14 22 35 69 47 105 l21 65 12 -57 c7 -32 14 -58 16 -58 2 0 25
40 51 90 58 109 137 206 211 260 31 22 60 40 65 40 4 0 -13 -33 -39 -72 -54
-85 -93 -165 -93 -192 0 -13 28 9 93 75 110 114 220 198 302 232 70 30 79 31
69 15z m-760 -910 c17 -66 -7 -196 -50 -260 l-24 -38 58 0 c179 0 358 -51 442
-127 56 -50 105 -142 116 -215 l6 -48 -66 0 c-63 0 -66 1 -72 28 -14 63 -34
99 -72 129 -99 76 -251 102 -486 83 -83 -7 -154 -14 -158 -16 -14 -9 -85 16
-103 36 -13 15 -19 36 -19 72 0 44 4 54 32 79 36 32 68 37 98 14 30 -23 47
-18 91 28 54 56 75 100 82 172 l6 60 45 12 c63 16 67 16 74 -9z m245 -110
c-26 -62 -94 -86 -140 -50 -30 25 -20 48 33 71 24 10 59 36 78 57 l35 39 3
-44 c2 -24 -2 -57 -9 -73z m661 -429 c0 -4 -20 -12 -45 -19 -52 -15 -105 -68
-105 -105 0 -24 -3 -25 -65 -25 l-65 0 0 41 c0 70 75 170 154 205 31 13 32 13
78 -39 26 -28 48 -55 48 -58z m1016 -27 l62 -107 -27 -8 c-30 -9 -271 -6 -271
3 0 4 12 17 26 31 34 32 87 104 114 157 12 24 25 40 29 37 3 -4 33 -54 67
-113z m-1066 -188 c0 -3 -11 -20 -25 -38 -30 -39 -31 -50 -6 -84 47 -68 60
-221 26 -322 -22 -66 -83 -130 -141 -148 -56 -16 -172 -15 -223 3 -40 14 -42
14 -57 -10 -13 -20 -25 -25 -55 -25 l-39 0 29 46 29 45 -24 47 c-65 125 -49
312 34 406 52 57 208 85 301 53 43 -15 44 -15 63 9 14 17 29 24 54 24 19 0 34
-3 34 -6z m-950 -129 l0 -106 88 3 87 3 3 103 3 102 74 0 75 0 0 -285 0 -285
-75 0 -74 0 -3 108 -3 107 -64 3 c-113 6 -111 8 -111 -113 l0 -105 -80 0 -80
0 0 285 0 285 80 0 80 0 0 -105z m1450 80 c58 -30 99 -85 107 -144 l6 -41 -74
0 c-72 1 -75 2 -94 33 -40 63 -129 62 -172 -2 -19 -28 -23 -47 -23 -108 0
-124 32 -159 138 -154 27 1 76 46 67 61 -3 6 -28 10 -56 10 l-49 0 0 60 0 61
128 -3 127 -3 3 -157 3 -158 -41 0 c-35 0 -42 4 -51 26 -9 25 -11 25 -27 11
-32 -29 -91 -47 -155 -47 -151 0 -226 68 -248 225 -17 119 14 237 78 297 46
44 89 57 191 58 80 0 100 -4 142 -25z m658 -5 c2 -18 -31 -78 -113 -208 -63
-101 -115 -185 -115 -188 0 -2 52 -4 115 -4 l115 0 0 -70 0 -70 -240 0 -240 0
0 34 c0 23 16 58 53 117 97 152 167 266 167 272 0 4 -46 8 -102 9 l-103 3 -3
54 c-2 29 -1 60 2 67 5 12 46 14 233 12 l228 -3 3 -25z m232 -460 l0 -80 -80
0 -80 0 0 80 0 80 80 0 80 0 0 -80z"/>
<path d="M1708 2925 c-105 -17 -255 -65 -332 -108 -31 -18 -100 -63 -151 -102
l-95 -70 118 -17 c136 -19 237 -54 359 -125 132 -78 236 -166 453 -385 229
-231 265 -256 386 -266 99 -8 148 11 220 82 51 52 63 71 79 126 76 261 -74
552 -383 743 -127 79 -356 139 -517 136 -27 -1 -89 -7 -137 -14z"/>
<path d="M1641 1484 c-13 -9 -29 -32 -37 -50 -15 -36 -19 -154 -6 -154 5 0 26
25 48 56 21 30 54 76 73 101 27 36 31 47 20 54 -22 14 -73 10 -98 -7z"/>
<path d="M1739 1357 c-96 -135 -103 -148 -88 -158 24 -15 75 -10 102 11 30 24
47 75 47 140 0 75 -12 76 -61 7z"/>
<path d="M1 903 l-1 -903 903 1 c496 1 891 3 877 6 -244 37 -393 78 -571 154
-365 157 -677 419 -892 750 -150 231 -254 504 -297 779 l-18 115 -1 -902z"/>
<path d="M3987 1721 c-24 -229 -139 -549 -275 -769 -179 -288 -443 -540 -742
-707 -195 -108 -456 -196 -684 -230 -80 -11 21 -13 812 -14 l902 -1 0 890 c0
490 -2 890 -4 890 -2 0 -6 -27 -9 -59z"/>
</g>
</svg>
